<?xml version="1.0" encoding="UTF-8" standalone="no"?>
<!DOCTYPE svg PUBLIC "-//W3C//DTD SVG 1.1//EN" "http://www.w3.org/Graphics/SVG/1.1/DTD/svg11.dtd">
<svg width="100%" height="100%" viewBox="0 0 512 512" version="1.1" xmlns="http://www.w3.org/2000/svg" xmlns:xlink="http://www.w3.org/1999/xlink" xml:space="preserve" xmlns:serif="http://www.serif.com/" style="fill-rule:evenodd;clip-rule:evenodd;stroke-linecap:round;stroke-linejoin:round;stroke-miterlimit:1.5;">
    <g transform="matrix(1.213167,0,0,1.213167,-57.54612,-56.224486)">
        <path d="M86,174C81.074,142.175 101.759,120.58 134,107C215.091,67.313 295.456,65.042 375,105C402.11,117.474 422.332,132.397 426,153C437.376,193.585 399.334,228.11 368,225C347.192,222.935 326.584,211.055 306,198C304.164,222.986 306.91,248.038 282,264L281,426C279.541,436.543 270.589,441.591 258,442C244.84,442.427 234.279,436.398 232,425L232,265C207.423,248.067 203.615,224.656 207,199C180.015,213.816 169.084,227.068 139,226C105.378,221.339 90.91,205.727 86,174Z" style="fill:rgb(255,143,46);stroke:black;stroke-width:0.82px;"/>
    </g>
    <g transform="matrix(1.213167,0,0,1.213167,-57.54612,-56.224486)">
        <path d="M99,174C95.675,142.185 121.192,127.631 149,114C165.937,104.676 183.837,96.76 203,94C205.189,116.358 199.894,155.386 209,157C221.67,159.246 211.725,93.17 216,92C227.797,89.402 239.809,88.852 251,90C250.898,120.641 248.444,149.47 257,150C266.198,147.46 262.282,118.028 263,90C274.796,89.301 287.132,89.961 298,92C297.813,124.843 294.31,157.177 304,158C314.582,158.363 309.354,121.566 310,93C336.133,98.688 360.683,110.399 385,123C403.236,133.869 413.751,146.736 415,162C415.44,186.616 406.125,202.632 387,210C365.133,217.537 346.507,206.404 324,194C303.436,182.667 280.836,177.145 256,178C223.557,178.088 196.175,186.558 173,202C153.531,216.357 133.874,217.383 114,203C104.49,194.507 99.965,184.717 99,174Z" style="fill:white;stroke:black;stroke-width:0.82px;"/>
    </g>
    <g transform="matrix(1.213167,0,0,1.213167,-57.54612,-56.224486)">
        <path d="M257,430C243.108,428.756 245.682,412.335 244.905,383.915C243.88,346.375 244.841,298.225 244,258C231.481,251.144 224.091,241.908 221,229C218.168,217.174 217.283,195.1 221,195C229.854,192.828 219.022,228.484 239,229C247.233,228.998 251.193,222.763 252.366,215.345C254.086,204.469 250.967,191.05 256,191C260.836,190.952 257.985,204.214 259.526,215.107C260.683,223.286 265.302,228.614 274,229C280.113,229.272 284.231,224.615 286.006,218.615C289.158,207.959 287.074,193.064 291,194C296.251,193.319 294.394,211.783 293,229C292.308,245.3 281.283,253.274 268,258C268.105,282.387 268.396,305.219 268.21,332.032C268.954,354.73 268.277,373.339 268.419,389.994C268.609,412.434 270.823,428.867 257,430Z" style="fill:white;stroke:black;stroke-width:0.82px;"/>
    </g>
    <g transform="matrix(1.213167,0,0,1.213167,-57.54612,-56.224486)">
        <path d="M240,191C236.216,190.746 235.514,197.135 235,203C234.92,208.799 235.457,215.959 239,216C242.899,216.423 243.957,210.066 244,203C243.86,195.991 242.739,190.871 240,191" style="fill:white;stroke:black;stroke-width:0.82px;"/>
    </g>
    <g transform="matrix(1.213167,0,0,1.213167,-57.54612,-56.224486)">
        <path d="M270,203C270.08,195.535 270.903,191.002 274,191C277.817,190.997 277.805,195.264 278,203C278.051,211.744 276.644,215.842 274,216C270.627,216.16 269.92,210.447 270,203Z" style="fill:white;stroke:black;stroke-width:0.82px;"/>
    </g>
</svg>
